<svg xmlns="http://www.w3.org/2000/svg" viewBox="0 0 528 172" width="528" height="172"><rect x="20" y="20" width="88" height="88" rx="14.7" fill="#5B21B6"/><path d="M42.9 85.1 L81.2 46.8" stroke="#FFFFFF" stroke-width="9.7" stroke-linecap="square" fill="none"/><path d="M48.2 42.9 L85.1 42.9 L85.1 79.8" stroke="#FFFFFF" stroke-width="9.7" stroke-linecap="butt" stroke-linejoin="miter" fill="none"/><path d="M132.72 109.2V42.384H144.624V48.144H146.352Q147.984 45.36 151.44 43.2Q154.89600000000002 41.04 161.328 41.04Q167.088 41.04 171.98399999999998 43.872Q176.88 46.704 179.856 52.176Q182.832 57.647999999999996 182.832 65.424V66.96000000000001Q182.832 74.736 179.856 80.208Q176.88 85.68 171.98399999999998 88.512Q167.088 91.344 161.328 91.344Q157.008 91.344 154.07999999999998 90.336Q151.152 89.328 149.37599999999998 87.744Q147.6 86.16 146.544 84.528H144.816V109.2ZM157.68 80.78399999999999Q163.344 80.78399999999999 167.04 77.184Q170.736 73.584 170.736 66.672V65.712Q170.736 58.8 166.992 55.2Q163.248 51.6 157.68 51.6Q152.112 51.6 148.368 55.2Q144.624 58.8 144.624 65.712V66.672Q144.624 73.584 148.368 77.184Q152.112 80.78399999999999 157.68 80.78399999999999ZM190.468 90.0V42.384H202.564V90.0ZM196.51599999999996 36.815999999999995Q193.25199999999998 36.815999999999995 190.99599999999998 34.70399999999999Q188.73999999999998 32.592 188.73999999999998 29.135999999999996Q188.73999999999998 25.679999999999993 190.99599999999998 23.567999999999998Q193.25199999999998 21.456000000000003 196.51599999999996 21.456000000000003Q199.87599999999998 21.456000000000003 202.08399999999997 23.567999999999998Q204.29199999999997 25.679999999999993 204.29199999999997 29.135999999999996Q204.29199999999997 32.592 202.08399999999997 34.70399999999999Q199.87599999999998 36.815999999999995 196.51599999999996 36.815999999999995ZM230.744 90.0Q226.04 90.0 223.112 87.072Q220.184 84.144 220.184 79.248V52.368H208.28V42.384H220.184V27.6H232.28V42.384H245.33599999999998V52.368H232.28V77.136Q232.28 80.016 234.968 80.016H244.184V90.0ZM273.42 91.344Q266.508 91.344 260.892 88.464Q255.27599999999998 85.584 252.012 80.112Q248.748 74.64 248.748 66.864V65.52Q248.748 57.744 252.012 52.272Q255.27599999999998 46.8 260.892 43.92Q266.508 41.04 273.42 41.04Q280.236 41.04 285.132 43.44Q290.028 45.839999999999996 293.052 50.016Q296.076 54.192 297.036 59.471999999999994L285.324 61.968Q284.94 59.088 283.596 56.784Q282.252 54.48 279.804 53.135999999999996Q277.356 51.792 273.70799999999997 51.792Q270.06 51.792 267.132 53.376000000000005Q264.204 54.96 262.524 58.08Q260.844 61.2 260.844 65.712V66.672Q260.844 71.184 262.524 74.304Q264.204 77.424 267.132 79.00800000000001Q270.06 80.592 273.70799999999997 80.592Q279.18 80.592 282.012 77.75999999999999Q284.844 74.928 285.61199999999997 70.32L297.324 73.104Q296.076 78.19200000000001 293.052 82.368Q290.028 86.544 285.132 88.94399999999999Q280.236 91.344 273.42 91.344ZM303.80800000000005 90.0V22.799999999999997H315.904V48.24H317.632Q318.40000000000003 46.704 320.03200000000004 45.168Q321.66400000000004 43.632 324.40000000000003 42.623999999999995Q327.136 41.616 331.36 41.616Q336.928 41.616 341.10400000000004 44.16Q345.28000000000003 46.704 347.58400000000006 51.168Q349.88800000000003 55.632 349.88800000000003 61.584V90.0H337.79200000000003V62.544Q337.79200000000003 57.168 335.15200000000004 54.480000000000004Q332.512 51.792 327.61600000000004 51.792Q322.048 51.792 318.976 55.488Q315.904 59.184 315.904 65.80799999999999V90.0ZM359.4440000000001 90.0V22.799999999999997H371.54V90.0ZM381.48 90.0V42.384H393.57599999999996V90.0ZM387.52799999999996 36.815999999999995Q384.26399999999995 36.815999999999995 382.0079999999999 34.70399999999999Q379.75199999999995 32.592 379.75199999999995 29.135999999999996Q379.75199999999995 25.679999999999993 382.0079999999999 23.567999999999998Q384.26399999999995 21.456000000000003 387.52799999999996 21.456000000000003Q390.888 21.456000000000003 393.096 23.567999999999998Q395.304 25.679999999999993 395.304 29.135999999999996Q395.304 32.592 393.096 34.70399999999999Q390.888 36.815999999999995 387.52799999999996 36.815999999999995ZM403.5160000000001 90.0V42.384H415.4200000000001V48.624H417.148Q418.30000000000007 46.128 421.4680000000001 43.872Q424.636 41.616 431.06800000000004 41.616Q436.6360000000001 41.616 440.81200000000007 44.16Q444.98800000000006 46.704 447.29200000000003 51.168Q449.59600000000006 55.632 449.59600000000006 61.584V90.0H437.50000000000006V62.544Q437.50000000000006 57.168 434.86 54.480000000000004Q432.22 51.792 427.32400000000007 51.792Q421.75600000000003 51.792 418.684 55.488Q415.612 59.184 415.612 65.80799999999999V90.0ZM480.84800000000007 91.344Q473.7440000000001 91.344 468.32000000000005 88.32Q462.8960000000001 85.296 459.87200000000007 79.77600000000001Q456.84800000000007 74.256 456.84800000000007 66.768V65.616Q456.84800000000007 58.128 459.82400000000007 52.608000000000004Q462.80000000000007 47.088 468.17600000000004 44.064Q473.5520000000001 41.04 480.65600000000006 41.04Q487.6640000000001 41.04 492.84800000000007 44.16Q498.0320000000001 47.28 500.9120000000001 52.8Q503.7920000000001 58.32 503.7920000000001 65.616V69.744H469.1360000000001Q469.3280000000001 74.64 472.7840000000001 77.71199999999999Q476.24000000000007 80.78399999999999 481.2320000000001 80.78399999999999Q486.32000000000005 80.78399999999999 488.72 78.576Q491.12000000000006 76.368 492.36800000000005 73.68L502.2560000000001 78.864Q500.9120000000001 81.36 498.36800000000005 84.288Q495.82400000000007 87.216 491.6000000000001 89.28Q487.3760000000001 91.344 480.84800000000007 91.344ZM469.2320000000001 60.72H491.5040000000001Q491.12000000000006 56.592 488.19200000000006 54.096000000000004Q485.26400000000007 51.6 480.56000000000006 51.6Q475.6640000000001 51.6 472.7840000000001 54.096000000000004Q469.90400000000005 56.592 469.2320000000001 60.72Z" fill="#15132B"/><path d="M108.73200000000003 142.656 108.78000000000003 139.296H108.65200000000003L106.41200000000002 145.04L104.17200000000003 139.296H104.04400000000003L104.09200000000003 142.656V148.0H102.50800000000002V136.832H104.70000000000002L106.41200000000002 141.264H106.52400000000003L108.25200000000002 136.832H110.31600000000003V148.0H108.73200000000003ZM115.58800000000002 148.0V136.832H122.58000000000001V138.336H117.38000000000002V141.584H122.38800000000002V143.088H117.38000000000002V146.496H122.58000000000001V148.0ZM128.12400000000002 136.832H131.45200000000003Q133.59600000000003 136.832 134.62800000000004 138.256Q135.66000000000003 139.68 135.66000000000003 142.416Q135.66000000000003 145.152 134.62800000000004 146.576Q133.59600000000003 148.0 131.45200000000003 148.0H128.12400000000002ZM131.34000000000003 146.528Q132.57200000000003 146.528 133.17200000000003 145.704Q133.77200000000002 144.88 133.77200000000002 143.344V141.488Q133.77200000000002 139.952 133.17200000000003 139.128Q132.57200000000003 138.304 131.34000000000003 138.304H129.90000000000003V146.528ZM140.69200000000004 148.0V146.64H143.31600000000003V138.192H140.69200000000004V136.832H147.73200000000003V138.192H145.10800000000003V146.64H147.73200000000003V148.0ZM159.40400000000002 148.0 158.55600000000004 145.024H155.00400000000002L154.15600000000003 148.0H152.33200000000002L155.59600000000003 136.832H158.04400000000004L161.30800000000002 148.0ZM156.84400000000002 138.64H156.71600000000004L155.34000000000003 143.536H158.22000000000003ZM182.01200000000003 144.448Q181.24400000000003 144.448 180.93200000000002 144.128Q180.62 143.808 180.62 143.344V142.928Q180.62 142.464 180.93200000000002 142.144Q181.24400000000003 141.824 182.01200000000003 141.824Q182.78000000000003 141.824 183.09200000000004 142.144Q183.40400000000002 142.464 183.40400000000002 142.928V143.344Q183.40400000000002 143.808 183.09200000000004 144.128Q182.78000000000003 144.448 182.01200000000003 144.448ZM209.532 142.656 209.58 139.296H209.452L207.21200000000002 145.04L204.972 139.296H204.844L204.892 142.656V148.0H203.308V136.832H205.5L207.21200000000002 141.264H207.324L209.05200000000002 136.832H211.116V148.0H209.532ZM222.404 148.0 221.556 145.024H218.004L217.156 148.0H215.332L218.596 136.832H221.044L224.308 148.0ZM219.844 138.64H219.716L218.34 143.536H221.22ZM230.732 148.0H228.956V136.832H233.132Q234.732 136.832 235.572 137.728Q236.412 138.624 236.412 140.192Q236.412 141.472 235.788 142.304Q235.164 143.136 233.99599999999998 143.328L236.572 148.0H234.588L232.22 143.488H230.732ZM232.876 142.048Q234.54 142.048 234.54 140.528V139.84Q234.54 138.32 232.876 138.32H230.732V142.048ZM244.596 142.864 243.25199999999998 144.544V148.0H241.45999999999998V136.832H243.25199999999998V142.176H243.332L244.69199999999998 140.32L247.428 136.832H249.492L245.81199999999998 141.536L249.636 148.0H247.588ZM254.188 148.0V136.832H261.18V138.336H255.98V141.584H260.988V143.088H255.98V146.496H261.18V148.0ZM271.108 138.336V148.0H269.316V138.336H265.81199999999995V136.832H274.61199999999997V138.336ZM279.2919999999999 148.0V146.64H281.91599999999994V138.192H279.2919999999999V136.832H286.33199999999994V138.192H283.70799999999997V146.64H286.33199999999994V148.0ZM293.47599999999994 139.408H293.332V148.0H291.76399999999995V136.832H294.068L297.34799999999996 145.424H297.49199999999996V136.832H299.05999999999995V148.0H296.756ZM310.092 146.464H309.97999999999996Q309.836 146.8 309.63599999999997 147.11200000000002Q309.436 147.424 309.14 147.664Q308.844 147.904 308.428 148.048Q308.012 148.192 307.46799999999996 148.192Q305.724 148.192 304.844 146.704Q303.964 145.216 303.964 142.496Q303.964 139.648 304.972 138.144Q305.97999999999996 136.64 308.06 136.64Q308.876 136.64 309.49199999999996 136.86399999999998Q310.108 137.088 310.53999999999996 137.464Q310.972 137.84 311.26 138.344Q311.548 138.848 311.724 139.408L310.108 139.952Q309.97999999999996 139.584 309.81999999999994 139.256Q309.65999999999997 138.928 309.428 138.672Q309.19599999999997 138.416 308.86799999999994 138.272Q308.53999999999996 138.128 308.07599999999996 138.128Q306.908 138.128 306.38800000000003 139.03199999999998Q305.868 139.936 305.868 141.472V143.248Q305.868 144.016 305.98 144.656Q306.092 145.296 306.356 145.752Q306.62 146.208 307.044 146.464Q307.46799999999996 146.72 308.07599999999996 146.72Q309.05199999999996 146.72 309.572 146.136Q310.092 145.552 310.092 144.64V143.632H307.932V142.288H311.724V148.0H310.092ZM333.21199999999993 144.448Q332.4439999999999 144.448 332.13199999999995 144.128Q331.81999999999994 143.808 331.81999999999994 143.344V142.928Q331.81999999999994 142.464 332.13199999999995 142.144Q332.4439999999999 141.824 333.21199999999993 141.824Q333.9799999999999 141.824 334.2919999999999 142.144Q334.6039999999999 142.464 334.6039999999999 142.928V143.344Q334.6039999999999 143.808 334.2919999999999 144.128Q333.9799999999999 144.448 333.21199999999993 144.448ZM361.00399999999996 148.0 360.15599999999995 145.024H356.604L355.756 148.0H353.93199999999996L357.19599999999997 136.832H359.64399999999995L362.90799999999996 148.0ZM358.44399999999996 138.64H358.316L356.93999999999994 143.536H359.82ZM367.52399999999994 136.832H370.8519999999999Q372.9959999999999 136.832 374.0279999999999 138.256Q375.05999999999995 139.68 375.05999999999995 142.416Q375.05999999999995 145.152 374.0279999999999 146.576Q372.9959999999999 148.0 370.8519999999999 148.0H367.52399999999994ZM370.73999999999995 146.528Q371.9719999999999 146.528 372.5719999999999 145.704Q373.1719999999999 144.88 373.1719999999999 143.344V141.488Q373.1719999999999 139.952 372.5719999999999 139.128Q371.9719999999999 138.304 370.73999999999995 138.304H369.29999999999995V146.528ZM384.508 138.336V148.0H382.71599999999995V138.336H379.21199999999993V136.832H388.01199999999994V138.336ZM392.78799999999995 148.0V136.832H399.78V138.336H394.58V141.584H399.58799999999997V143.088H394.58V146.496H399.78V148.0ZM409.132 148.192Q407.004 148.192 405.972 146.688Q404.94 145.184 404.94 142.416Q404.94 139.648 405.972 138.144Q407.004 136.64 409.132 136.64Q409.948 136.64 410.548 136.856Q411.148 137.072 411.58000000000004 137.448Q412.012 137.824 412.308 138.328Q412.604 138.832 412.796 139.408L411.18 139.952Q411.052 139.568 410.89200000000005 139.232Q410.732 138.896 410.492 138.656Q410.252 138.416 409.924 138.272Q409.596 138.128 409.116 138.128Q407.932 138.128 407.38800000000003 139.03199999999998Q406.844 139.936 406.844 141.472V143.36Q406.844 144.896 407.38800000000003 145.8Q407.932 146.704 409.116 146.704Q409.596 146.704 409.924 146.56Q410.252 146.416 410.492 146.176Q410.732 145.936 410.89200000000005 145.60000000000002Q411.052 145.264 411.18 144.88L412.796 145.424Q412.604 146.0 412.308 146.50400000000002Q412.012 147.008 411.58000000000004 147.38400000000001Q411.148 147.76 410.548 147.976Q409.948 148.192 409.132 148.192ZM423.26800000000003 143.088H419.55600000000004V148.0H417.764V136.832H419.55600000000004V141.584H423.26800000000003V136.832H425.06V148.0H423.26800000000003Z" fill="#5B21B6"/></svg>